<svg xmlns="http://www.w3.org/2000/svg" xmlns:xlink="http://www.w3.org/1999/xlink" version="1.1" x="0px" y="0px" viewBox="0 0 24 30" enable-background="new 0 0 24 24" xml:space="preserve">
  <g><path
    d="M15,7c-1.1,0-2,0.9-2,2c-1.1,0-2,0.9-2,2v5c0,1.1,0.9,2,2,2h0.787c0.545,0.609,1.328,1,2.213,1h3c1.656,0,3-1.343,3-3v-4   c1.1,0,2-0.9,2-2V5.5C24,5.224,23.775,5,23.5,5C23.223,5,23,5.224,23,5.5V6c0,0.241-0.301,1-1,1 M23,10c0,0.551-0.449,1-1,1h-2v3   h-1v-1c0-0.553-0.447-1-1-1s-1,0.447-1,1v1.5c0,0.553,0.447,1,1,1V16c0,0.551-0.449,1-1,1h-4c-0.551,0-1-0.449-1-1v-5   c0-0.551,0.449-1,1-1h2.5c0.275,0,0.5-0.224,0.5-0.5S15.775,9,15.5,9H14c0-0.551,0.449-1,1-1h7c0.391,0,0.723-0.11,1-0.285V10z"/><path
    d="M13.975,5.121l-0.049-0.194c-2.012,0.417-4,0.938-6.001,1.404c-0.117,0.031-0.233,0.061-0.35,0.092   c0.03-0.117,0.062-0.233,0.092-0.35C8.13,4.065,8.652,2.07,9.066,0.049L8.874,0C7.94,0.828,7.332,1.739,6.843,2.678   c-0.51,0.935-0.857,1.91-1.108,2.91C5.623,6.046,5.536,6.51,5.469,6.98c-0.53,0.139-1.061,0.284-1.59,0.427   c-0.26-0.8-1.001-1.383-1.886-1.383c-1.1,0-1.993,0.896-1.993,2s0.894,2,1.993,2c0.914,0,1.675-0.62,1.911-1.461   c0.481,0.062,0.957,0.099,1.423,0.095c0.008,0,0.018,0,0.026,0c0,0.007-0.001,0.015-0.001,0.022   c-0.004,0.467,0.031,0.943,0.094,1.426c-0.84,0.234-1.46,1-1.46,1.917c0,1.104,0.894,2,1.993,2s1.993-0.896,1.993-2   c0-0.887-0.58-1.63-1.377-1.893c0.142-0.529,0.281-1.06,0.419-1.59c0.47-0.066,0.935-0.157,1.392-0.271   c0.995-0.257,1.968-0.604,2.898-1.117C12.242,6.661,13.146,6.053,13.975,5.121z M1.993,9.024c-0.55,0-0.997-0.449-0.997-1   s0.447-1,0.997-1s0.997,0.449,0.997,1S2.543,9.024,1.993,9.024z M6.976,12.023c0,0.551-0.447,1-0.997,1s-0.996-0.449-0.996-1   c0-0.55,0.446-1,0.996-1S6.976,11.473,6.976,12.023z M6.477,8.024c-0.274,0-0.498-0.224-0.498-0.5s0.224-0.5,0.498-0.5   s0.499,0.224,0.499,0.5S6.751,8.024,6.477,8.024z"/><path d="M20,20h-4v4h8C24,21.791,22.209,20,20,20z"/><path d="M9,24h6v-4h-2C10.791,20,9,21.791,9,24z"/><rect x="4" y="17" width="1" height="3"/><rect x="6" y="16" width="1" height="3"/><rect x="8" y="17" width="1" height="3"/></g>
</svg>