<svg xmlns="http://www.w3.org/2000/svg" viewBox="0 0 100 125" x="0px" y="0px"><title>Artboard 51</title><g><path d="M60.87,28.35,52,8.06,51.89,8,51.8,7.8l-.1-.12-.11-.13-.13-.12-.13-.09a1,1,0,0,0-.17-.1l-.09,0h0l-.18-.06-.14,0-.17,0h-.32l-.17,0-.16,0-.16,0h0l-.12.07-.13.07-.15.12-.1.09-.14.15A.76.76,0,0,1,49,7.8L48.89,8l-.06.1L39.91,28.35a1.62,1.62,0,0,0-.12.94,2.56,2.56,0,0,0,0,.39V87a.77.77,0,0,0,0,.15c0,.11,0,.21,0,.31a4.72,4.72,0,0,0,4.71,4.71H56.34a4.71,4.71,0,0,0,4.71-4.71c0-.1,0-.2,0-.31s0-.1,0-.15V29.68a4.91,4.91,0,0,0,0-.55A1.77,1.77,0,0,0,60.87,28.35Zm-13.2-9.19h5.44l2.77,6.3h-11ZM50.39,13l1.22,2.77H49.17Zm-7.22,16.7c0-.33.59-.82,1.48-.82h4.06V82.7H44.47a4.64,4.64,0,0,0-1.3.19Zm8.94-.82h4c.89,0,1.49.49,1.49.82V82.89a4.71,4.71,0,0,0-1.31-.19H52.11Zm4.23,59.86H44.47a1.31,1.31,0,0,1,0-2.61H56.34a1.31,1.31,0,1,1,0,2.61Z"/><path d="M91.68,29.68a3.1,3.1,0,0,0-.05-.54,1.64,1.64,0,0,0-.1-.72L86.35,14.9a1.77,1.77,0,0,0-.62-.78,1.69,1.69,0,0,0-1.22-.52H82.63V8a1.71,1.71,0,0,0-3.41,0V13.6H77.73a1.68,1.68,0,0,0-1.15.46,1.62,1.62,0,0,0-.71.83L70.51,28.41a1.73,1.73,0,0,0-.1.84c0,.14,0,.28,0,.43V87a1.33,1.33,0,0,1,0,.46,4.71,4.71,0,0,0,4.71,4.71H87a4.71,4.71,0,0,0,4.71-4.71c0-.09,0-.17,0-.25a1.48,1.48,0,0,0,0-.21ZM78.69,17h4.82l3.24,8.45H75.34Zm9.59,69.38a1.6,1.6,0,0,0-.07.84c0,.11,0,.23.07.18A1.31,1.31,0,0,1,87,88.72H75.1a1.31,1.31,0,0,1-1.32-1.13c0-.06.07-.3.08-.36a1.45,1.45,0,0,0-.07-.77V29.68c0-.33.59-.82,1.49-.82H86.79c.89,0,1.49.49,1.49.82Z"/><path d="M27.87,8.55H14.43A5.21,5.21,0,0,0,9,13.5V87.43a2.45,2.45,0,0,0,0,.27c0,.1,0,.22,0,.34a5.41,5.41,0,0,0,5.21,5.58H28.09A5.41,5.41,0,0,0,33.3,88a3.25,3.25,0,0,0,0-.33,2.46,2.46,0,0,0,0-.28V13.5A5.21,5.21,0,0,0,27.87,8.55Zm2,78.28a1.75,1.75,0,0,0-.1.85c0,.06.08.3.1.36a2,2,0,0,1-1.81,2.18H14.21a2,2,0,0,1-1.8-2.14c0-.06.08-.34.09-.4a1.51,1.51,0,0,0-.1-.76V85.66h6.65a1.71,1.71,0,0,0,0-3.41H12.4v-3.9h6.65a1.7,1.7,0,0,0,0-3.4H12.4v-3.9h6.65a1.7,1.7,0,1,0,0-3.4H12.4v-3.9h6.65a1.7,1.7,0,0,0,0-3.4H12.4v-3.9h6.65a1.7,1.7,0,0,0,0-3.4H12.4v-3.9h6.65a1.71,1.71,0,0,0,0-3.41H12.4v-3.9h6.65a1.7,1.7,0,0,0,0-3.4H12.4v-3.9h6.65a1.7,1.7,0,0,0,0-3.4H12.4v-3.9h6.65a1.7,1.7,0,0,0,0-3.4H12.4v-3.9h6.65a1.71,1.71,0,0,0,0-3.41H12.4v-3a1.87,1.87,0,0,1,2-1.55H27.87a1.87,1.87,0,0,1,2,1.55Z"/></g><text x="0" y="115" fill="#000000" font-size="5px" font-weight="bold" font-family="'Helvetica Neue', Helvetica, Arial-Unicode, Arial, Sans-serif">Created by VM Design</text><text x="0" y="120" fill="#000000" font-size="5px" font-weight="bold" font-family="'Helvetica Neue', Helvetica, Arial-Unicode, Arial, Sans-serif">from the Noun Project</text></svg>