<svg xmlns="http://www.w3.org/2000/svg" xmlns:xlink="http://www.w3.org/1999/xlink" version="1.1" x="0px" y="0px" viewBox="2 -87.6 326 531.5" enable-background="new 2 -87.6 326 425.2" xml:space="preserve"><g><path d="M74.3,181.4c-7.4-1.7-14.2-0.3-20.8-2.2c-18.9-5.5-31.6-23.7-29.1-42.7c2.6-19.8,19.1-34.5,39.3-34.6   c51.7-0.1,103.3,0,155,0c11.7,0,23.5,0,35.2,0c3.3,0,7.1-0.1,7.3,4.3c0.1,4.3,2.4,9.3-3,12.6c-14.5,8.8-16.9,30.8-4.9,42.4   c2.5,2.4,5.2,2.3,8.1,2.3c11.7,0,23.5,0,35.2,0c3.8,0,8.6-0.8,8.7,4.7c0.1,4.4,2.7,9.5-4.2,12.7c-8.5,3.9-11,12.5-11.3,21.3   c-0.2,9.2,2.3,18.3,10.9,22.4c7.2,3.5,4.7,8.8,4.5,13.4c-0.3,5.6-5.4,4-9,4.2c-3.8,0.2-7.6,0-11.4,0c-14.3,0-21.3,6.6-21.4,21.1   c0,10,2.3,19,12.7,24c5.5,2.7,3.1,8.4,2.6,12.7c-0.5,4.8-5.1,3.9-8.5,3.9c-49.6,0-99.2,0-148.8,0c-13.2,0-26.4,0.1-39.6,0   c-20.2-0.2-35.9-13.6-39.5-33.3c-3.3-17.7,7.9-36.5,26.1-42.9c4.9-1.7,6.8-2.6,3.9-8.1C65.6,206.8,67.6,194,74.3,181.4z    M138.2,145.8c30.2,0,60.4,0,90.6,0.1c4.3,0,7.6-0.1,6.8-5.9c-0.7-5.4-4.8-3.4-7.5-3.4c-59.5-0.1-119-0.1-178.5,0   c-3.2,0-8.2-2.2-8.3,4.4c-0.1,6.5,4.7,4.8,8,4.8C79,145.9,108.6,145.9,138.2,145.8z M183,198.2c-30.2,0-60.4,0-90.6,0   c-4.1,0-7.9-0.1-7,5.8c0.9,5.7,5.4,3.4,8.4,3.4c59.2,0.1,118.4,0.2,177.6,0c3.1,0,8.2,2.4,8.3-4.3c0.1-7.4-5.4-4.8-8.8-4.8   C241.6,198.1,212.3,198.2,183,198.2z M157.1,259.9c-30.2,0-60.4,0-90.5,0.1c-3.2,0-7.4-1.5-7.6,4.4c-0.2,5.8,3.8,4.9,7.2,4.9   c60.1,0,120.1,0,180.2,0c3.3,0,7.2,1.1,7.1-4.8c-0.2-6-4.4-4.4-7.5-4.4C216.3,259.8,186.7,259.9,157.1,259.9z M47.1,155.7   c4.5,5.2,9.9,7.8,16.6,7.8c57.2,0,114.4,0,171.5-0.1c1.9,0,5.6,1.6,5.5-2c-0.1-2.5-1.1-6-4.4-7c-1.9-0.6-4.1-0.3-6.1-0.3   c-58.6,0-117.3,0-175.9,0C52.1,154.2,49.7,153.3,47.1,155.7z M46.1,128.2c63.8,0,125.6,0,187.4,0.1c6.3,0,6.3-4.5,7.5-8.5   c-1-0.4-1.5-0.7-2.1-0.7c-58.9,0-117.8-0.1-176.7,0C56.3,119,51.2,121.7,46.1,128.2z M285.3,180.6c-60.4,0-119.9-0.1-179.3,0.1   c-5.9,0-11,2.7-15.3,8.4c2.2,0.4,3.2,0.7,4.3,0.7c60.4,0,120.8-0.1,181.1,0.1C282.5,190,284,186.5,285.3,180.6z M90,215.7   c5.5,7.1,11,9.4,17.8,9.4c57.2,0,114.3,0,171.5,0c1.9,0,5.7,1.5,5.5-2c-0.2-2.7-1.1-6.7-5.2-7.1c-2.3-0.3-4.7-0.1-7-0.1   c-45.1,0-90.3-0.1-135.4-0.1C122,215.7,106.9,215.7,90,215.7z M63.6,277.5c5.4,6.9,10.7,9.3,17.1,9.3c57.4,0,114.9,0.1,172.3,0   c1.9,0,5.6,1.6,5.3-2.2c-0.2-2.5-1.1-6.1-4.6-6.8c-2.5-0.5-5.2-0.3-7.9-0.3c-43.1,0-86.1,0-129.2,0   C99.7,277.5,82.7,277.5,63.6,277.5z M64.8,250c2.2,2.3,4.3,1.5,6.2,1.5c59.2,0.1,118.4,0.1,177.6,0.1c1.8,0,3.6,0.2,5.2-0.3   c3.3-1,4.4-4.4,4.5-6.9c0.1-3.6-3.6-2-5.5-2c-57.1-0.1-114.3-0.1-171.4-0.1C74.7,242.2,69.2,244.8,64.8,250z"/><g><g><path d="M136.9-31.3c1.8-3.7,4-6.7,7.2-8.8c1.1-0.8,2.4-1.4,3.4,0.1c1,1.4,0.1,2.5-1.1,3.3c-6.1,4.1-7,10.4-7.1,17.1     c0,2.8,1.7,2.4,3.4,2.4c9.1-0.3,18.2,0.1,27,3c19.2,6.3,31.3,22.5,31.9,42.7c0.5,20.1-6.8,37.1-19.5,52.1     c-4.1,4.8-8.6,9.3-13.2,13.7c-8.3,7.8-17.9,9.6-28.5,5c-2.3-1-4.2-0.8-6.4,0.1c-8.9,3.8-17.7,3.5-25.3-2.8     c-16.7-13.9-30-30.2-34.3-52.2C70.7,26,73.2,9,87.6-4.4c9.2-8.6,20.7-11.8,32.9-12.7c3.7-0.3,7.4-0.4,11.1,0     c4.8,0.5,3-2.9,3.5-5.1c0.6-3-1.3-2.8-3.2-2.8c-6.2-0.2-12.4,0-18.6-0.9c-9.4-1.4-16.1-6.2-19.7-15.1c-0.6-1.6-1.2-3.2-1.7-4.8     c-2.7-8.4-2.6-8.7,6.2-7.7c7.9,0.8,15.6,2.7,22.7,6.3C127.7-43.8,133.6-39.1,136.9-31.3z M124.7-27.1c2.6,0,5.3-0.1,7.9,0     c2.4,0.1,2.7-1.1,2.2-3c-1-3.4-2.7-6.3-5.3-8.7c-9.8-9.1-21.8-12.2-34.8-12.8c-1.2-0.1-2,0.1-1.9,1.7c0.4,8.4,8.1,18.2,16.2,20.6     C114.2-27.6,119.4-27.4,124.7-27.1z M115.1-4.4c-6,0.5-10.4,2.1-14.2,5.2c-4.9,3.9-8.1,9-9.6,15.1c-0.5,1.8-0.4,3.9,1.8,4.7     c2.1,0.7,3.4-0.8,4.4-2.5c0.4-0.7,0.7-1.5,0.8-2.2c0.6-4.2,2.7-7.7,5.3-10.9C106.5,1.3,110.2-1.5,115.1-4.4z"/></g></g></g><text x="2" y="352.6" fill="#000000" font-size="5px" font-weight="bold" font-family="'Helvetica Neue', Helvetica, Arial-Unicode, Arial, Sans-serif">Created by O R I M Λ T</text><text x="2" y="357.6" fill="#000000" font-size="5px" font-weight="bold" font-family="'Helvetica Neue', Helvetica, Arial-Unicode, Arial, Sans-serif">from the Noun Project</text></svg>